<svg width="129" height="36" viewBox="0 0 129 36" fill="none" xmlns="http://www.w3.org/2000/svg">
<path d="M25.6484 24.8281C25.6484 27.0625 25.0469 29.0078 23.8438 30.6641C22.6562 32.3203 20.9844 33.5547 18.8281 34.3672C16.6719 35.1797 14.0781 35.5859 11.0469 35.5859C7.53125 35.5859 4.3125 34.9922 1.39062 33.8047V24.5938C2.79688 25.625 4.35156 26.4609 6.05469 27.1016C7.75781 27.7266 9.34375 28.0391 10.8125 28.0391C11.9219 28.0391 12.7812 27.8438 13.3906 27.4531C14 27.0469 14.3047 26.4609 14.3047 25.6953C14.3047 25.1484 14.1484 24.6719 13.8359 24.2656C13.5391 23.8438 13.0781 23.4531 12.4531 23.0938C11.8438 22.7344 10.7031 22.2422 9.03125 21.6172C3.625 19.5391 0.921875 16.1797 0.921875 11.5391C0.921875 8.28906 2.15625 5.69531 4.625 3.75781C7.09375 1.80469 10.4062 0.828125 14.5625 0.828125C15.7344 0.828125 16.8125 0.875 17.7969 0.96875C18.7812 1.0625 19.6719 1.17969 20.4688 1.32031C21.2812 1.46094 22.4141 1.72656 23.8672 2.11719V10.6719C21.0391 9.125 18.2578 8.35156 15.5234 8.35156C14.3984 8.35156 13.4922 8.5625 12.8047 8.98438C12.1172 9.40625 11.7734 9.98438 11.7734 10.7188C11.7734 11.4219 12.0469 12.0078 12.5938 12.4766C13.1562 12.9297 14.3203 13.5234 16.0859 14.2578C19.5703 15.6641 22.0312 17.2031 23.4688 18.875C24.9219 20.5469 25.6484 22.5312 25.6484 24.8281Z" fill="black"/>
<path d="M52.4418 35L40.5824 18.7812C39.6449 17.5 38.8793 16.3438 38.2856 15.3125H38.1918C38.2856 16.9688 38.3324 18.8281 38.3324 20.8906V35H28.9574V1.39062H38.5199L49.8871 16.8125C50.0277 17.0156 50.1996 17.2578 50.4027 17.5391C50.6059 17.8203 50.809 18.1094 51.0121 18.4062C51.2152 18.7031 51.4027 18.9922 51.5746 19.2734C51.7621 19.5547 51.9027 19.8047 51.9965 20.0234H52.0902C51.9965 19.3359 51.9496 18.1484 51.9496 16.4609V1.39062H61.3246V35H52.4418Z" fill="black"/>
<path d="M85.7274 35L78.2742 20.7969C77.7742 19.6719 77.4774 18.8984 77.3836 18.4766H77.2664V35H67.1414V1.39062H77.2664V17.375H77.3836C77.6805 16.5312 78.0164 15.75 78.3914 15.0312L85.0946 1.39062H97.0946L87.5555 17.4219L98.0086 35H85.7274Z" fill="black"/>
<path d="M116.904 35L114.396 27.7578C113.911 26.3359 113.279 25.2188 112.497 24.4062C111.732 23.5938 110.896 23.1875 109.99 23.1875H109.591V35H99.4661V1.39062H112.919C117.622 1.39062 121.091 2.16406 123.325 3.71094C125.575 5.24219 126.7 7.54688 126.7 10.625C126.7 12.9375 126.044 14.875 124.732 16.4375C123.435 18 121.497 19.1328 118.919 19.8359V19.9297C120.341 20.3672 121.521 21.0781 122.458 22.0625C123.411 23.0469 124.263 24.5078 125.013 26.4453L128.318 35H116.904ZM115.943 12.0547C115.943 10.9297 115.599 10.0391 114.911 9.38281C114.224 8.72656 113.146 8.39844 111.677 8.39844H109.591V16.0859H111.419C112.779 16.0859 113.872 15.7031 114.7 14.9375C115.529 14.1719 115.943 13.2109 115.943 12.0547Z" fill="black"/>
</svg>
