<svg width="35" height="35" viewBox="0 0 35 35" fill="none" xmlns="http://www.w3.org/2000/svg">
<rect x="1" y="1" width="33" height="33" stroke="white" stroke-width="2"/>
<path d="M23.5 26C22.5717 26 21.6815 25.6313 21.0251 24.9749C20.3687 24.3185 20 23.4283 20 22.5C20 21.5717 20.3687 20.6815 21.0251 20.0251C21.6815 19.3687 22.5717 19 23.5 19C24.4283 19 25.3185 19.3687 25.9749 20.0251C26.6313 20.6815 27 21.5717 27 22.5C27 23.4283 26.6313 24.3185 25.9749 24.9749C25.3185 25.6313 24.4283 26 23.5 26ZM12.5 15C12.0404 15 11.5852 14.9095 11.1606 14.7336C10.736 14.5577 10.3501 14.2999 10.0251 13.9749C9.70012 13.6499 9.44231 13.264 9.26642 12.8394C9.09053 12.4148 9 11.9596 9 11.5C9 11.0404 9.09053 10.5852 9.26642 10.1606C9.44231 9.73597 9.70012 9.35013 10.0251 9.02513C10.3501 8.70012 10.736 8.44231 11.1606 8.26642C11.5852 8.09053 12.0404 8 12.5 8C13.4283 8 14.3185 8.36875 14.9749 9.02513C15.6313 9.6815 16 10.5717 16 11.5C16 12.4283 15.6313 13.3185 14.9749 13.9749C14.3185 14.6313 13.4283 15 12.5 15ZM25.071 8.515L26.485 9.929L10.93 25.485L9.516 24.071L17.293 16.293L25.071 8.515Z" fill="white"/>
</svg>
