<svg width="38" height="20" viewBox="0 0 38 20" fill="none" xmlns="http://www.w3.org/2000/svg">
<path d="M32.5 19C33.8807 19 35 17.8807 35 16.5C35 15.1193 33.8807 14 32.5 14C31.1193 14 30 15.1193 30 16.5C30 17.8807 31.1193 19 32.5 19Z" stroke="white" stroke-width="2" stroke-linecap="round" stroke-linejoin="round"/>
<path d="M14.5 19C15.8807 19 17 17.8807 17 16.5C17 15.1193 15.8807 14 14.5 14C13.1193 14 12 15.1193 12 16.5C12 17.8807 13.1193 19 14.5 19Z" stroke="white" stroke-width="2" stroke-linecap="round" stroke-linejoin="round"/>
<path d="M30 6H34L37 9V14H30V6Z" stroke="white" stroke-width="2" stroke-linecap="round" stroke-linejoin="round"/>
<path d="M30 1H11V14H30V1Z" stroke="white" stroke-width="2" stroke-linecap="round" stroke-linejoin="round"/>
<line x1="8" y1="5" x2="15" y2="5" stroke="white" stroke-width="2"/>
<line x1="4" y1="8" x2="15" y2="8" stroke="white" stroke-width="2"/>
<line y1="11" x2="15" y2="11" stroke="white" stroke-width="2"/>
</svg>
