<svg width="689" height="213" viewBox="0 0 689 213" fill="none" xmlns="http://www.w3.org/2000/svg">
<g filter="url(#filter0_d)">
<path d="M112.307 145.869C112.307 139.352 109.979 134.274 105.324 130.635C100.754 126.995 92.6712 123.229 81.0762 119.336C69.4811 115.443 60.002 111.676 52.6387 108.037C28.6868 96.2728 16.7109 80.1074 16.7109 59.541C16.7109 49.3001 19.6732 40.2865 25.5977 32.5C31.6068 24.6289 40.0703 18.5352 50.9883 14.2188C61.9062 9.81771 74.1784 7.61719 87.8047 7.61719C101.092 7.61719 112.984 9.98698 123.479 14.7266C134.058 19.4661 142.268 26.237 148.107 35.0391C153.947 43.7565 156.867 53.7435 156.867 65H112.434C112.434 57.4674 110.106 51.6276 105.451 47.4805C100.881 43.3333 94.6602 41.2598 86.7891 41.2598C78.8333 41.2598 72.528 43.0371 67.873 46.5918C63.3027 50.0618 61.0176 54.5052 61.0176 59.9219C61.0176 64.6615 63.5566 68.9779 68.6348 72.8711C73.7129 76.6797 82.6419 80.6576 95.4219 84.8047C108.202 88.8672 118.697 93.2682 126.906 98.0078C146.88 109.518 156.867 125.387 156.867 145.615C156.867 161.781 150.773 174.476 138.586 183.701C126.398 192.926 109.683 197.539 88.4395 197.539C73.459 197.539 59.875 194.873 47.6875 189.541C35.5846 184.124 26.444 176.761 20.2656 167.451C14.1719 158.057 11.125 147.266 11.125 135.078H55.8125C55.8125 144.98 58.3516 152.301 63.4297 157.041C68.5924 161.696 76.929 164.023 88.4395 164.023C95.8027 164.023 101.6 162.458 105.832 159.326C110.148 156.11 112.307 151.624 112.307 145.869Z" fill="black"/>
<path d="M334.094 195H289.787L224.279 79.9805V195H179.719V10.1562H224.279L289.66 125.176V10.1562H334.094V195Z" fill="black"/>
<path d="M425.119 126.191L406.838 146.25V195H362.277V10.1562H406.838V91.6602L422.326 68.1738L462.189 10.1562H517.287L454.826 91.9141L517.287 195H464.475L425.119 126.191Z" fill="black"/>
<path d="M597.268 129.746H573.146V195H528.586V10.1562H601.33C623.251 10.1562 640.389 15.0228 652.746 24.7559C665.103 34.4889 671.281 48.2422 671.281 66.0156C671.281 78.8802 668.658 89.5443 663.41 98.0078C658.247 106.471 650.122 113.327 639.035 118.574L677.629 193.096V195H629.895L597.268 129.746ZM573.146 95.3418H601.33C609.794 95.3418 616.141 93.1413 620.373 88.7402C624.689 84.2546 626.848 78.0339 626.848 70.0781C626.848 62.1224 624.689 55.9017 620.373 51.416C616.057 46.8457 609.709 44.5605 601.33 44.5605H573.146V95.3418Z" fill="black"/>
</g>
<defs>
<filter id="filter0_d" x="0.125" y="0.617188" width="688.504" height="211.922" filterUnits="userSpaceOnUse" color-interpolation-filters="sRGB">
<feFlood flood-opacity="0" result="BackgroundImageFix"/>
<feColorMatrix in="SourceAlpha" type="matrix" values="0 0 0 0 0 0 0 0 0 0 0 0 0 0 0 0 0 0 127 0"/>
<feOffset dy="4"/>
<feGaussianBlur stdDeviation="5.5"/>
<feColorMatrix type="matrix" values="0 0 0 0 0.791667 0 0 0 0 0.791667 0 0 0 0 0.791667 0 0 0 0.68 0"/>
<feBlend mode="normal" in2="BackgroundImageFix" result="effect1_dropShadow"/>
<feBlend mode="normal" in="SourceGraphic" in2="effect1_dropShadow" result="shape"/>
</filter>
</defs>
</svg>
